<svg width="65" height="64" viewBox="0 0 65 64" fill="none" xmlns="http://www.w3.org/2000/svg">
<path fill-rule="evenodd" clip-rule="evenodd" d="M30.5016 5.39989C30.5015 5.39991 30.5016 5.39987 30.5016 5.39989L5.45258 18.1045C5.24646 18.2092 5.09925 18.3498 5.00755 18.4922C4.91715 18.6325 4.87931 18.7752 4.87931 18.9072V43.9757C4.88001 44.65 5.07719 45.3249 5.46909 45.9325C5.86244 46.5423 6.44263 47.0682 7.16824 47.4362L30.5016 59.2769C30.5014 59.2768 30.5017 59.277 30.5016 59.2769C31.1935 59.6277 31.9841 59.8172 32.796 59.8172C33.6078 59.8172 34.3979 59.6279 35.0899 59.2771C35.0897 59.2772 35.09 59.2771 35.0899 59.2771L58.4232 47.4365C59.1492 47.0683 59.7301 46.5419 60.1234 45.9317C60.5154 45.3237 60.7124 44.6482 60.7126 43.9736C60.7126 43.9734 60.7126 43.9738 60.7126 43.9736V18.9073C60.7127 18.7753 60.6748 18.6325 60.5844 18.4922C60.4927 18.3498 60.3456 18.2093 60.1396 18.1046C60.1396 18.1046 60.1397 18.1047 60.1396 18.1046L35.0904 5.39989C35.0903 5.39987 35.0904 5.39991 35.0904 5.39989C34.3983 5.04896 33.608 4.85954 32.796 4.85954C31.984 4.85954 31.1936 5.04896 30.5016 5.39989ZM28.6171 1.68375C29.9053 1.03047 31.3428 0.692871 32.796 0.692871C34.2491 0.692871 35.6867 1.03047 36.9749 1.68375L62.0259 14.3894C62.8585 14.8122 63.5767 15.443 64.0874 16.2361C64.5995 17.0312 64.8793 17.954 64.8793 18.9073C64.8793 18.9073 64.8793 18.9073 64.8793 18.9073V43.9736C64.8789 45.47 64.4396 46.9264 63.6255 48.1893C62.8127 49.45 61.6612 50.4661 60.3087 51.1521C60.3086 51.1522 60.3089 51.152 60.3087 51.1521L36.9754 62.9928C35.6872 63.6461 34.2491 63.9839 32.796 63.9839C31.3428 63.9839 29.9053 63.6463 28.6171 62.993L5.28372 51.1524C5.28355 51.1523 5.28389 51.1524 5.28372 51.1524C3.93192 50.4667 2.7803 49.451 1.96763 48.191C1.15357 46.929 0.713854 45.474 0.712647 43.9783L0.712646 18.9074C0.712646 18.9074 0.712646 18.9074 0.712646 18.9074C0.712622 17.9541 0.99244 17.0312 1.50451 16.2361C2.01529 15.443 2.73348 14.8122 3.56604 14.3894L28.6171 1.68375Z" fill="#754E29"/>
<path fill-rule="evenodd" clip-rule="evenodd" d="M30.7127 33.617L1.85352 18.9763L3.73861 15.2605L32.7961 30.0017L61.8535 15.2605L63.7386 18.9763L34.8794 33.617V62.7765H30.7127V33.617Z" fill="#754E29"/>
<path fill-rule="evenodd" clip-rule="evenodd" d="M49.6539 8.56555C50.1744 9.59165 49.7646 10.8455 48.7385 11.366L18.7385 26.5854C17.7124 27.1059 16.4586 26.6961 15.938 25.67C15.4175 24.6439 15.8273 23.3901 16.8534 22.8695L46.8534 7.65017C47.8795 7.12962 49.1333 7.53945 49.6539 8.56555ZM10.9392 32.3906C11.4611 31.3652 12.7154 30.957 13.7409 31.4788L23.7409 36.5682C24.7663 37.0901 25.1745 38.3444 24.6526 39.3698C24.1308 40.3953 22.8764 40.8035 21.851 40.2816L11.851 35.1922C10.8256 34.6704 10.4174 33.416 10.9392 32.3906Z" fill="#754E29"/>
</svg>
