<svg width="61" height="61" viewBox="0 0 61 61" fill="none" xmlns="http://www.w3.org/2000/svg">
<path d="M51.0833 17.4387C51.0848 18.9587 50.8732 20.4716 50.4545 21.9345H55.376C58.0403 21.9345 60.1973 24.0625 60.1973 26.688V41.4163C60.1973 45.0777 59.1515 48.665 57.1797 51.7669C55.208 54.8688 52.3901 57.3597 49.0492 58.9541C45.7083 60.5485 41.9796 61.1817 38.2907 60.7813C34.6017 60.3808 31.1018 58.9629 28.1922 56.69L24.5922 60.2386C24.3836 60.4595 24.1321 60.6366 23.8526 60.7595C23.5731 60.8824 23.2714 60.9484 22.9654 60.9538C22.6595 60.9591 22.3556 60.9036 22.0719 60.7905C21.7882 60.6774 21.5305 60.5092 21.3141 60.2957C21.0978 60.0823 20.9272 59.828 20.8126 59.5481C20.698 59.2682 20.6417 58.9684 20.6471 58.6665C20.6525 58.3647 20.7195 58.0671 20.844 57.7913C20.9685 57.5156 21.1481 57.2674 21.372 57.0616L24.9689 53.5099C23.7603 52.0065 22.7836 50.3349 22.0707 48.5496C19.422 49.083 16.6863 49.0285 14.0617 48.3901C11.437 47.7516 8.98913 46.5452 6.89537 44.8583C4.80161 43.1713 3.11438 41.0461 1.95591 38.6364C0.797433 36.2267 0.196714 33.593 0.197266 30.9261V17.4806C0.197266 14.975 2.25701 12.9429 4.79676 12.9429H18.2945C19.2875 9.49056 21.3949 6.45203 24.2969 4.2884C27.1988 2.12476 30.737 0.954111 34.3745 0.954102H46.7087C49.1238 0.954102 51.0833 2.88729 51.0833 5.27006V17.4387ZM22.897 13.4884C25.4186 14.1199 27.7744 15.2755 29.8067 16.8779C31.839 18.4803 33.501 20.4924 34.6813 22.7797C36.5513 22.2177 38.4956 21.9329 40.4504 21.9345H45.6454C46.2291 20.5056 46.5282 18.9792 46.5264 17.4387V5.4499H34.3745C31.8526 5.44992 29.3931 6.22364 27.3368 7.66387C25.2804 9.10411 23.7288 11.1396 22.897 13.4884ZM31.4428 53.483C33.7052 55.1267 36.3853 56.1193 39.1853 56.3501C41.9852 56.581 44.7952 56.0412 47.3027 54.7907C49.8103 53.5403 51.9171 51.6282 53.3891 49.267C54.861 46.9059 55.6403 44.1882 55.6403 41.4163V26.688C55.6403 26.6542 55.6335 26.6207 55.6204 26.5894C55.6073 26.5581 55.588 26.5297 55.5638 26.5058C55.5395 26.4818 55.5107 26.4628 55.479 26.4499C55.4473 26.4369 55.4133 26.4303 55.379 26.4303H40.4504C37.6407 26.4303 34.8861 27.1991 32.4928 28.6513C30.0996 30.1035 28.1614 32.1821 26.894 34.6559C25.6265 37.1298 25.0794 39.9021 25.3134 42.6644C25.5474 45.4268 26.5534 48.0709 28.2195 50.3029L41.1188 37.5798C41.3274 37.359 41.5789 37.1818 41.8584 37.059C42.1379 36.9361 42.4396 36.8701 42.7456 36.8647C43.0515 36.8594 43.3554 36.9149 43.6391 37.028C43.9228 37.141 44.1805 37.3093 44.3969 37.5228C44.6132 37.7362 44.7838 37.9905 44.8984 38.2704C45.013 38.5503 45.0693 38.8501 45.0639 39.1519C45.0585 39.4538 44.9915 39.7514 44.867 40.0272C44.7424 40.3029 44.5629 40.5511 44.339 40.7569L31.4428 53.483ZM20.7036 41.4163C20.7036 39.6419 20.9466 37.9215 21.3963 36.288L13.0175 28.0188C12.7937 27.813 12.6141 27.5648 12.4896 27.2891C12.365 27.0133 12.2981 26.7157 12.2927 26.4139C12.2873 26.112 12.3436 25.8122 12.4582 25.5323C12.5728 25.2524 12.7433 24.9982 12.9597 24.7847C13.176 24.5712 13.4338 24.403 13.7175 24.2899C14.0012 24.1768 14.3051 24.1213 14.611 24.1266C14.9169 24.132 15.2186 24.198 15.4981 24.3209C15.7776 24.4438 16.0292 24.6209 16.2378 24.8418L23.2798 31.7863C25.0034 28.8039 27.4917 26.3211 30.495 24.587C29.3295 22.4275 27.5905 20.6215 25.4644 19.3623C23.3382 18.1031 20.9049 17.4381 18.4251 17.4387H4.78157L4.76638 17.4507C4.76268 17.4552 4.75962 17.4603 4.75727 17.4657L4.75423 17.4806V30.9261C4.75396 32.9046 5.19491 34.8589 6.0458 36.6505C6.8967 38.4421 8.13671 40.0271 9.67789 41.293C11.2191 42.5589 13.0237 43.4749 14.9638 43.9758C16.9039 44.4767 18.9319 44.5504 20.9041 44.1917C20.7709 43.2724 20.7039 42.3449 20.7036 41.4163Z" fill="#754E29"/>
</svg>
