<svg width="61" height="61" viewBox="0 0 61 61" fill="none" xmlns="http://www.w3.org/2000/svg">
<path d="M30.1943 0.723633C13.6523 0.723633 0.194336 14.1816 0.194336 30.7236V43.1526C0.194336 46.2246 2.88534 48.7236 6.19434 48.7236H9.19434C9.98999 48.7236 10.753 48.4076 11.3157 47.845C11.8783 47.2823 12.1943 46.5193 12.1943 45.7236V30.2946C12.1943 29.499 11.8783 28.7359 11.3157 28.1733C10.753 27.6107 9.98999 27.2946 9.19434 27.2946H6.47034C8.13834 15.6846 18.1283 6.72363 30.1943 6.72363C42.2603 6.72363 52.2503 15.6846 53.9183 27.2946H51.1943C50.3987 27.2946 49.6356 27.6107 49.073 28.1733C48.5104 28.7359 48.1943 29.499 48.1943 30.2946V48.7236C48.1943 52.0326 45.5033 54.7236 42.1943 54.7236H36.1943V51.7236H24.1943V60.7236H42.1943C48.8123 60.7236 54.1943 55.3416 54.1943 48.7236C57.5033 48.7236 60.1943 46.2246 60.1943 43.1526V30.7236C60.1943 14.1816 46.7363 0.723633 30.1943 0.723633Z" fill="#754E29"/>
</svg>
