<svg width="61" height="61" viewBox="0 0 61 61" fill="none" xmlns="http://www.w3.org/2000/svg">
<path d="M25.9301 0.947348L25.9158 0.927336L25.8787 0.955925C11.5444 2.47971 0.374023 14.6214 0.374023 29.3818C0.374023 35.9916 2.61553 42.0781 6.37898 46.9211V46.9268H6.38469C8.76379 49.9954 11.7433 52.5457 15.1409 54.4215C18.5384 56.2974 22.2826 57.4593 26.1442 57.8363C26.2784 56.4755 26.6096 55.0518 27.1065 53.6137C20.9464 53.1558 15.1942 50.3575 11.0276 45.7918C11.1847 45.1057 11.256 44.3081 11.3131 43.6162L11.3388 43.2789C11.3902 42.6499 11.4388 42.0438 11.5187 41.432C11.7186 39.9254 12.0613 38.9191 12.5952 38.3501C13.2805 37.6154 13.983 37.4925 15.4535 37.2323L15.7191 37.1837C16.4729 37.0522 17.4809 36.8492 18.4517 36.3203C19.4882 35.7543 20.3648 34.8909 21.0244 33.6187C21.6898 32.3379 21.6412 31.0171 21.4585 29.9736C21.2923 29.138 21.0729 28.314 20.8017 27.5064C20.7575 27.3655 20.7137 27.2245 20.6704 27.0833C20.085 25.1735 20.0136 24.2444 20.4962 23.5097C21.0216 22.7092 21.7412 22.5262 23.6143 22.0402L23.857 21.9802C25.7587 21.4884 28.3343 20.6651 29.8249 17.4831C31.441 14.0382 30.5301 10.153 29.5393 7.51707C29.2269 6.689 28.8714 5.87788 28.4742 5.08701C28.6256 5.0813 28.7769 5.0813 28.9283 5.0813C33.5122 5.07429 38.0035 6.37324 41.8776 8.82644C41.3294 9.55545 40.5955 10.516 39.776 11.5424C37.9771 13.7923 35.9497 16.108 34.5677 17.1458C33.9313 17.6113 33.4481 18.2563 33.18 18.9984C32.9492 19.6729 32.8952 20.3954 33.0229 21.0968C33.2228 22.2861 33.8539 23.401 34.4135 24.253C34.879 24.9648 35.4272 25.6824 35.8869 26.2885L36.201 26.6973C36.4666 27.0547 36.6864 27.3492 36.8492 27.6036C36.932 27.7265 36.992 27.8266 37.0319 27.9009C37.0719 27.9724 37.0862 28.0096 37.0891 28.0124C37.2033 28.3269 37.326 28.8415 37.4688 29.5562L37.5316 29.8593C38.7994 29.2932 40.1729 28.8586 41.6434 28.587C41.5141 27.8889 41.3347 27.201 41.1066 26.5287C40.7925 25.6796 40.1101 24.7676 39.619 24.1158C39.4956 23.9534 39.3719 23.7914 39.2478 23.6297C38.8099 23.068 38.3918 22.4911 37.9942 21.9001C37.5516 21.2254 37.3375 20.7594 37.2661 20.4764C39.1221 19.0412 41.4007 16.371 43.1197 14.224C43.9649 13.1662 44.7187 12.1799 45.2813 11.4252C49.9909 15.716 52.8224 21.6919 53.1622 28.0582C54.8184 28.1897 56.2461 28.4069 57.4739 28.6614C57.0913 13.2062 44.4589 0.792969 28.9283 0.792969C27.9174 0.792969 26.9152 0.844428 25.9301 0.947348ZM7.32983 40.4772C5.6281 37.155 4.71355 33.485 4.65712 29.7518C4.60068 26.0186 5.40388 22.3226 7.00442 18.9504C8.60495 15.5782 10.9598 12.6204 13.8864 10.3064C16.8129 7.99246 20.2325 6.38453 23.8799 5.60733C24.5294 6.69666 25.0826 7.84076 25.5332 9.02656C26.4298 11.4137 26.7895 13.8609 25.95 15.6592C25.3076 17.0257 24.3938 17.4117 22.7862 17.8262L22.3237 17.9406C20.8046 18.3094 18.4089 18.8869 16.9183 21.1511C15.2022 23.7584 16.0474 26.6144 16.5757 28.3412L16.747 28.8901C16.9755 29.6191 17.1468 30.1766 17.2382 30.7083C17.3467 31.3287 17.2667 31.5546 17.2267 31.6375C16.9412 32.1892 16.6556 32.4151 16.4044 32.5523C16.0903 32.7239 15.6791 32.8382 14.9709 32.9611C14.8567 32.984 14.7311 33.004 14.5997 33.024C13.2777 33.2413 11.1761 33.5872 9.46569 35.4255C8.07795 36.9121 7.57254 38.8848 7.32983 40.4772ZM28.9482 58.5567C29.1196 55.7979 30.3617 52.433 32.469 49.2625C33.1514 48.1018 33.9938 46.9268 34.9989 45.7804C38.3867 41.9215 42.8626 39.1805 47.8369 37.9184C48.2045 37.8263 48.5206 37.5917 48.7155 37.2663C48.9104 36.9409 48.9682 36.5512 48.8762 36.1831C48.7842 35.815 48.5499 35.4985 48.2249 35.3034C47.8998 35.1082 47.5107 35.0504 47.143 35.1425C41.6052 36.5461 36.6224 39.5972 32.8516 43.8935C32.0892 44.7655 31.3953 45.6717 30.7786 46.5894C30.4974 45.644 30.3551 44.6627 30.356 43.6762C30.356 41.0546 31.6894 38.2072 33.8025 35.9487C36.2122 33.3818 39.4363 31.7309 42.9255 31.2773C50.9207 30.2195 55.8834 31.1057 58.8102 31.9262C59.2056 32.0371 59.5607 32.2594 59.8334 32.5667C60.106 32.874 60.2848 33.2532 60.3483 33.6593C60.4117 34.0654 60.3573 34.4812 60.1915 34.8572C60.0256 35.2331 59.7553 35.5535 59.4127 35.78C59.25 35.8886 58.9873 36.1517 58.6703 36.752C58.2959 37.5093 57.9901 38.2986 57.7566 39.1106C57.5082 39.9225 57.2712 40.8002 57.0142 41.7551L56.8486 42.3612C56.5316 43.5333 56.1804 44.7912 55.7578 46.0377C54.924 48.502 53.7476 51.1322 51.7688 53.1506C49.7157 55.2462 46.9288 56.5527 43.2054 56.5527C39.4105 56.5527 36.7607 55.0117 35.0674 53.2392C33.9138 55.3548 33.3142 57.3474 33.2228 58.8169C33.1788 59.3772 32.9168 59.8979 32.4932 60.2667C32.0696 60.6356 31.5182 60.8231 30.9579 60.789C30.3975 60.7549 29.873 60.5019 29.4971 60.0844C29.1212 59.6669 28.9241 59.1183 28.9482 58.5567Z" fill="#754E29"/>
</svg>
